<svg viewBox="0 0 300 72.791" width="5000px" height="1213.183339436849px" xmlns="http://www.w3.org/2000/svg" xmlns:xlink="http://www.w3.org/1999/xlink" preserveAspectRatio="none"><defs></defs><style>.a6izo4zJpcolor {fill:#0C0C0C;fill-opacity:1;}.aB7crM0kCifillColor {fill:#FFFFFF;fill-opacity:1;}.aD6z1nYkhcolor {fill:#B78CD7;fill-opacity:1;}.aIptOCySncolors-0 {fill:#0C0C0C;fill-opacity:1;}.aIptOCySncolors-1 {fill:#FFFFFF;fill-opacity:1;}.aIptOCySncolors-2 {fill:#B78CD7;fill-opacity:1;}.atBXipXk0bfillColor {fill:#FFFFFF;fill-opacity:1;}.text-str {stroke:#0C0C0C;stroke-opacity:1;}</style><g opacity="1" transform="rotate(0 71.91890000000001 0)">
<svg width="228.0811" height="70.2967" x="71.91890000000001" y="0" version="1.1" preserveAspectRatio="none" viewBox="0 0 228.0811 70.2967">
  <rect x="0" y="0" width="228.0811" height="70.2967" class="aB7crM0kCifillColor text-str" style="stroke-width:0;" rx="0px" ry="0px"></rect>
</svg>
</g><g opacity="1" transform="rotate(0 104.9471 59.9213)">
<svg width="162.0248" height="12.8697" x="104.9471" y="59.9213" version="1.1" preserveAspectRatio="none" viewBox="1.64 -29.68 486.44000000000005 38.64">
  <g transform="matrix(1 0 0 1 0 0)" class="a6izo4zJpcolor"><path d="M12.36 0.32Q9.20 0.32 6.26-0.66Q3.32-1.64 1.64-3.20L1.64-3.20L3.12-6.32Q4.72-4.88 7.22-3.98Q9.72-3.08 12.36-3.08L12.36-3.08Q15.84-3.08 17.56-4.26Q19.28-5.44 19.28-7.40L19.28-7.40Q19.28-8.84 18.34-9.74Q17.40-10.64 16.02-11.12Q14.64-11.60 12.12-12.20L12.12-12.20Q8.96-12.96 7.02-13.72Q5.08-14.48 3.70-16.06Q2.32-17.64 2.32-20.32L2.32-20.32Q2.32-22.56 3.50-24.36Q4.68-26.16 7.08-27.24Q9.48-28.32 13.04-28.32L13.04-28.32Q15.52-28.32 17.92-27.68Q20.32-27.04 22.04-25.84L22.04-25.84L20.72-22.64Q18.96-23.76 16.96-24.34Q14.96-24.92 13.04-24.92L13.04-24.92Q9.64-24.92 7.94-23.68Q6.24-22.44 6.24-20.48L6.24-20.48Q6.24-19.04 7.20-18.14Q8.16-17.24 9.58-16.74Q11-16.24 13.44-15.68L13.44-15.68Q16.60-14.92 18.52-14.16Q20.44-13.40 21.82-11.84Q23.20-10.28 23.20-7.64L23.20-7.64Q23.20-5.44 22-3.62Q20.80-1.80 18.36-0.74Q15.92 0.32 12.36 0.32L12.36 0.32Z M39.56 0.24Q36.40 0.24 33.88-1.16Q31.36-2.56 29.94-5.02Q28.52-7.48 28.52-10.60L28.52-10.60Q28.52-13.72 29.94-16.18Q31.36-18.64 33.88-20.02Q36.40-21.40 39.56-21.40L39.56-21.40Q42.72-21.40 45.22-20.02Q47.72-18.64 49.14-16.18Q50.56-13.72 50.56-10.60L50.56-10.60Q50.56-7.48 49.14-5.02Q47.72-2.56 45.22-1.16Q42.72 0.24 39.56 0.24L39.56 0.24ZM39.56-3.12Q41.60-3.12 43.22-4.06Q44.84-5 45.76-6.70Q46.68-8.40 46.68-10.60L46.68-10.60Q46.68-12.80 45.76-14.50Q44.84-16.20 43.22-17.12Q41.60-18.04 39.56-18.04L39.56-18.04Q37.52-18.04 35.90-17.12Q34.28-16.20 33.34-14.50Q32.40-12.80 32.40-10.60L32.40-10.60Q32.40-8.40 33.34-6.70Q34.28-5 35.90-4.06Q37.52-3.12 39.56-3.12L39.56-3.12Z M57.88 0L57.88-29.68L61.72-29.68L61.72 0L57.88 0Z M86.96-21.20L90.80-21.20L90.80 0L87.16 0L87.16-3.20Q86-1.56 84.10-0.66Q82.20 0.24 79.96 0.24L79.96 0.24Q75.72 0.24 73.28-2.10Q70.84-4.44 70.84-9L70.84-9L70.84-21.20L74.68-21.20L74.68-9.44Q74.68-6.36 76.16-4.78Q77.64-3.20 80.40-3.20L80.40-3.20Q83.44-3.20 85.20-5.04Q86.96-6.88 86.96-10.24L86.96-10.24L86.96-21.20Z M109.36 0.24Q106.12 0.24 103.58-1.16Q101.04-2.56 99.60-5.02Q98.16-7.48 98.16-10.60L98.16-10.60Q98.16-13.72 99.60-16.18Q101.04-18.64 103.58-20.02Q106.12-21.40 109.36-21.40L109.36-21.40Q112.24-21.40 114.50-20.24Q116.76-19.08 118-16.88L118-16.88L115.08-15Q114.08-16.52 112.60-17.28Q111.12-18.04 109.32-18.04L109.32-18.04Q107.24-18.04 105.58-17.12Q103.92-16.20 102.98-14.50Q102.04-12.80 102.04-10.60L102.04-10.60Q102.04-8.36 102.98-6.66Q103.92-4.96 105.58-4.04Q107.24-3.12 109.32-3.12L109.32-3.12Q111.12-3.12 112.60-3.88Q114.08-4.64 115.08-6.16L115.08-6.16L118-4.32Q116.76-2.12 114.50-0.94Q112.24 0.24 109.36 0.24L109.36 0.24ZM107.48 8.96Q105.40 8.96 103.92 8.08L103.92 8.08L104.76 6.12Q105.96 6.80 107.48 6.80L107.48 6.80Q109.72 6.80 109.72 5.20L109.72 5.20Q109.72 4.48 109.16 4.06Q108.60 3.64 107.44 3.64L107.44 3.64L106.36 3.64L107.36-0.28L109.56-0.28L108.96 2Q110.64 2.16 111.54 3.06Q112.44 3.96 112.44 5.32L112.44 5.32Q112.44 7 111.08 7.98Q109.72 8.96 107.48 8.96L107.48 8.96Z M133.72 0.24Q130.56 0.24 128.04-1.16Q125.52-2.56 124.10-5.02Q122.68-7.48 122.68-10.60L122.68-10.60Q122.68-13.72 124.10-16.18Q125.52-18.64 128.04-20.02Q130.56-21.40 133.72-21.40L133.72-21.40Q136.88-21.40 139.38-20.02Q141.88-18.64 143.30-16.18Q144.72-13.72 144.72-10.60L144.72-10.60Q144.72-7.48 143.30-5.02Q141.88-2.56 139.38-1.16Q136.88 0.24 133.72 0.24L133.72 0.24ZM133.72-3.12Q135.76-3.12 137.38-4.06Q139-5 139.92-6.70Q140.84-8.40 140.84-10.60L140.84-10.60Q140.84-12.80 139.92-14.50Q139-16.20 137.38-17.12Q135.76-18.04 133.72-18.04L133.72-18.04Q131.68-18.04 130.06-17.12Q128.44-16.20 127.50-14.50Q126.56-12.80 126.56-10.60L126.56-10.60Q126.56-8.40 127.50-6.70Q128.44-5 130.06-4.06Q131.68-3.12 133.72-3.12L133.72-3.12ZM136.48-24.40Q135.52-24.40 134.82-24.80Q134.12-25.20 133.08-26L133.08-26Q132.48-26.56 132.04-26.82Q131.60-27.08 131.16-27.08L131.16-27.08Q130.28-27.08 129.72-26.42Q129.16-25.76 129.12-24.60L129.12-24.60L126.96-24.60Q127.04-26.84 128.10-28.16Q129.16-29.48 130.88-29.48L130.88-29.48Q131.84-29.48 132.58-29.06Q133.32-28.64 134.28-27.84L134.28-27.84Q134.96-27.28 135.36-27.02Q135.76-26.76 136.20-26.76L136.20-26.76Q137.08-26.76 137.64-27.40Q138.20-28.04 138.24-29.16L138.24-29.16L140.40-29.16Q140.32-27 139.26-25.70Q138.20-24.40 136.48-24.40L136.48-24.40Z M171.20-10.48Q171.20-10.04 171.12-9.32L171.12-9.32L153.92-9.32Q154.28-6.52 156.38-4.82Q158.48-3.12 161.60-3.12L161.60-3.12Q165.40-3.12 167.72-5.68L167.72-5.68L169.84-3.20Q168.40-1.52 166.26-0.64Q164.12 0.24 161.48 0.24L161.48 0.24Q158.12 0.24 155.52-1.14Q152.92-2.52 151.50-5Q150.08-7.48 150.08-10.60L150.08-10.60Q150.08-13.68 151.46-16.16Q152.84-18.64 155.26-20.02Q157.68-21.40 160.72-21.40L160.72-21.40Q163.76-21.40 166.14-20.02Q168.52-18.64 169.86-16.16Q171.20-13.68 171.20-10.48L171.20-10.48ZM160.72-18.16Q157.96-18.16 156.10-16.48Q154.24-14.80 153.92-12.08L153.92-12.08L167.52-12.08Q167.20-14.76 165.34-16.46Q163.48-18.16 160.72-18.16L160.72-18.16Z M184.60 0.24Q182 0.24 179.60-0.46Q177.20-1.16 175.84-2.24L175.84-2.24L177.44-5.28Q178.84-4.28 180.84-3.68Q182.84-3.08 184.88-3.08L184.88-3.08Q189.92-3.08 189.92-5.96L189.92-5.96Q189.92-6.92 189.24-7.48Q188.56-8.04 187.54-8.30Q186.52-8.56 184.64-8.88L184.64-8.88Q182.08-9.28 180.46-9.80Q178.84-10.32 177.68-11.56Q176.52-12.80 176.52-15.04L176.52-15.04Q176.52-17.92 178.92-19.66Q181.32-21.40 185.36-21.40L185.36-21.40Q187.48-21.40 189.60-20.88Q191.72-20.36 193.08-19.48L193.08-19.48L191.44-16.44Q188.84-18.12 185.32-18.12L185.32-18.12Q182.88-18.12 181.60-17.32Q180.32-16.52 180.32-15.20L180.32-15.20Q180.32-14.16 181.04-13.56Q181.76-12.96 182.82-12.68Q183.88-12.40 185.80-12.04L185.80-12.04Q188.36-11.60 189.94-11.10Q191.52-10.60 192.64-9.40Q193.76-8.20 193.76-6.04L193.76-6.04Q193.76-3.16 191.30-1.46Q188.84 0.24 184.60 0.24L184.60 0.24Z M232.48-10.48Q232.48-10.04 232.40-9.32L232.40-9.32L215.20-9.32Q215.56-6.52 217.66-4.82Q219.76-3.12 222.88-3.12L222.88-3.12Q226.68-3.12 229.00-5.68L229.00-5.68L231.12-3.20Q229.68-1.52 227.54-0.64Q225.40 0.24 222.76 0.24L222.76 0.24Q219.40 0.24 216.80-1.14Q214.20-2.52 212.78-5Q211.36-7.48 211.36-10.60L211.36-10.60Q211.36-13.68 212.74-16.16Q214.12-18.64 216.54-20.02Q218.96-21.40 222.00-21.40L222.00-21.40Q225.04-21.40 227.42-20.02Q229.80-18.64 231.14-16.16Q232.48-13.68 232.48-10.48L232.48-10.48ZM222.00-18.16Q219.24-18.16 217.38-16.48Q215.52-14.80 215.20-12.08L215.20-12.08L228.80-12.08Q228.48-14.76 226.62-16.46Q224.76-18.16 222.00-18.16L222.00-18.16Z M266.32-21.40Q270.32-21.40 272.66-19.08Q275-16.76 275-12.20L275-12.20L275 0L271.16 0L271.16-11.76Q271.16-14.84 269.74-16.40Q268.32-17.96 265.68-17.96L265.68-17.96Q262.76-17.96 261.04-16.14Q259.32-14.32 259.32-10.92L259.32-10.92L259.32 0L255.48 0L255.48-11.76Q255.48-14.84 254.06-16.40Q252.64-17.96 250.00-17.96L250.00-17.96Q247.08-17.96 245.36-16.14Q243.64-14.32 243.64-10.92L243.64-10.92L243.64 0L239.80 0L239.80-21.20L243.48-21.20L243.48-18.04Q244.64-19.68 246.52-20.54Q248.40-21.40 250.80-21.40L250.80-21.40Q253.28-21.40 255.20-20.40Q257.12-19.40 258.16-17.48L258.16-17.48Q259.36-19.32 261.50-20.36Q263.64-21.40 266.32-21.40L266.32-21.40Z M297.40 0L297.40-28L301.40-28L301.40 0L297.40 0Z M322.56-21.40Q326.60-21.40 328.98-19.06Q331.36-16.72 331.36-12.20L331.36-12.20L331.36 0L327.52 0L327.52-11.76Q327.52-14.84 326.04-16.40Q324.56-17.96 321.80-17.96L321.80-17.96Q318.68-17.96 316.88-16.14Q315.08-14.32 315.08-10.92L315.08-10.92L315.08 0L311.24 0L311.24-21.20L314.92-21.20L314.92-18Q316.08-19.64 318.06-20.52Q320.04-21.40 322.56-21.40L322.56-21.40Z M349.68 0.24Q346.52 0.24 344.00-1.16Q341.48-2.56 340.06-5.02Q338.64-7.48 338.64-10.60L338.64-10.60Q338.64-13.72 340.06-16.18Q341.48-18.64 344.00-20.02Q346.52-21.40 349.68-21.40L349.68-21.40Q352.84-21.40 355.34-20.02Q357.84-18.64 359.26-16.18Q360.68-13.72 360.68-10.60L360.68-10.60Q360.68-7.48 359.26-5.02Q357.84-2.56 355.34-1.16Q352.84 0.24 349.68 0.24L349.68 0.24ZM349.68-3.12Q351.72-3.12 353.34-4.06Q354.96-5 355.88-6.70Q356.80-8.40 356.80-10.60L356.80-10.60Q356.80-12.80 355.88-14.50Q354.96-16.20 353.34-17.12Q351.72-18.04 349.68-18.04L349.68-18.04Q347.64-18.04 346.02-17.12Q344.40-16.20 343.46-14.50Q342.52-12.80 342.52-10.60L342.52-10.60Q342.52-8.40 343.46-6.70Q344.40-5 346.02-4.06Q347.64-3.12 349.68-3.12L349.68-3.12Z M382.40-21.20L386.16-21.20L376.88 0L372.96 0L363.68-21.20L367.68-21.20L374.96-4.20L382.40-21.20Z M398.80-21.40Q403.20-21.40 405.54-19.24Q407.88-17.08 407.88-12.80L407.88-12.80L407.88 0L404.24 0L404.24-2.80Q403.28-1.32 401.50-0.54Q399.72 0.24 397.28 0.24L397.28 0.24Q393.72 0.24 391.58-1.48Q389.44-3.20 389.44-6L389.44-6Q389.44-8.80 391.48-10.50Q393.52-12.20 397.96-12.20L397.96-12.20L404.04-12.20L404.04-12.96Q404.04-15.44 402.60-16.76Q401.16-18.08 398.36-18.08L398.36-18.08Q396.48-18.08 394.68-17.46Q392.88-16.84 391.64-15.80L391.64-15.80L390.04-18.68Q391.68-20 393.96-20.70Q396.24-21.40 398.80-21.40L398.80-21.40ZM397.92-2.72Q400.12-2.72 401.72-3.70Q403.32-4.68 404.04-6.48L404.04-6.48L404.04-9.44L398.12-9.44Q393.24-9.44 393.24-6.16L393.24-6.16Q393.24-4.56 394.48-3.64Q395.72-2.72 397.92-2.72L397.92-2.72Z M426.36 0.24Q423.12 0.24 420.58-1.16Q418.04-2.56 416.60-5.02Q415.16-7.48 415.16-10.60L415.16-10.60Q415.16-13.72 416.60-16.18Q418.04-18.64 420.58-20.02Q423.12-21.40 426.36-21.40L426.36-21.40Q429.24-21.40 431.50-20.24Q433.76-19.08 435.00-16.88L435.00-16.88L432.08-15Q431.08-16.52 429.60-17.28Q428.12-18.04 426.32-18.04L426.32-18.04Q424.24-18.04 422.58-17.12Q420.92-16.20 419.98-14.50Q419.04-12.80 419.04-10.60L419.04-10.60Q419.04-8.36 419.98-6.66Q420.92-4.96 422.58-4.04Q424.24-3.12 426.32-3.12L426.32-3.12Q428.12-3.12 429.60-3.88Q431.08-4.64 432.08-6.16L432.08-6.16L435.00-4.32Q433.76-2.12 431.50-0.94Q429.24 0.24 426.36 0.24L426.36 0.24ZM424.48 8.96Q422.40 8.96 420.92 8.08L420.92 8.08L421.76 6.12Q422.96 6.80 424.48 6.80L424.48 6.80Q426.72 6.80 426.72 5.20L426.72 5.20Q426.72 4.48 426.16 4.06Q425.60 3.64 424.44 3.64L424.44 3.64L423.36 3.64L424.36-0.28L426.56-0.28L425.96 2Q427.64 2.16 428.54 3.06Q429.44 3.96 429.44 5.32L429.44 5.32Q429.44 7 428.08 7.98Q426.72 8.96 424.48 8.96L424.48 8.96Z M449.68-21.40Q454.08-21.40 456.42-19.24Q458.76-17.08 458.76-12.80L458.76-12.80L458.76 0L455.12 0L455.12-2.80Q454.16-1.32 452.38-0.54Q450.60 0.24 448.16 0.24L448.16 0.24Q444.60 0.24 442.46-1.48Q440.32-3.20 440.32-6L440.32-6Q440.32-8.80 442.36-10.50Q444.40-12.20 448.84-12.20L448.84-12.20L454.92-12.20L454.92-12.96Q454.92-15.44 453.48-16.76Q452.04-18.08 449.24-18.08L449.24-18.08Q447.36-18.08 445.56-17.46Q443.76-16.84 442.52-15.80L442.52-15.80L440.92-18.68Q442.56-20 444.84-20.70Q447.12-21.40 449.68-21.40L449.68-21.40ZM448.80-2.72Q451.00-2.72 452.60-3.70Q454.20-4.68 454.92-6.48L454.92-6.48L454.92-9.44L449.00-9.44Q444.12-9.44 444.12-6.16L444.12-6.16Q444.12-4.56 445.36-3.64Q446.60-2.72 448.80-2.72L448.80-2.72ZM452.76-24.40Q451.80-24.40 451.10-24.80Q450.40-25.20 449.36-26L449.36-26Q448.76-26.56 448.32-26.82Q447.88-27.08 447.44-27.08L447.44-27.08Q446.56-27.08 446.00-26.42Q445.44-25.76 445.40-24.60L445.40-24.60L443.24-24.60Q443.32-26.84 444.38-28.16Q445.44-29.48 447.16-29.48L447.16-29.48Q448.12-29.48 448.86-29.06Q449.60-28.64 450.56-27.84L450.56-27.84Q451.24-27.28 451.64-27.02Q452.04-26.76 452.48-26.76L452.48-26.76Q453.36-26.76 453.92-27.40Q454.48-28.04 454.52-29.16L454.52-29.16L456.68-29.16Q456.60-27 455.54-25.70Q454.48-24.40 452.76-24.40L452.76-24.40Z M477.08 0.24Q473.92 0.24 471.40-1.16Q468.88-2.56 467.46-5.02Q466.04-7.48 466.04-10.60L466.04-10.60Q466.04-13.72 467.46-16.18Q468.88-18.64 471.40-20.02Q473.92-21.40 477.08-21.40L477.08-21.40Q480.24-21.40 482.74-20.02Q485.24-18.64 486.66-16.18Q488.08-13.72 488.08-10.60L488.08-10.60Q488.08-7.48 486.66-5.02Q485.24-2.56 482.74-1.16Q480.24 0.24 477.08 0.24L477.08 0.24ZM477.08-3.12Q479.12-3.12 480.74-4.06Q482.36-5 483.28-6.70Q484.20-8.40 484.20-10.60L484.20-10.60Q484.20-12.80 483.28-14.50Q482.36-16.20 480.74-17.12Q479.12-18.04 477.08-18.04L477.08-18.04Q475.04-18.04 473.42-17.12Q471.80-16.20 470.86-14.50Q469.92-12.80 469.92-10.60L469.92-10.60Q469.92-8.40 470.86-6.70Q471.80-5 473.42-4.06Q475.04-3.12 477.08-3.12L477.08-3.12Z"></path></g>
</svg>
</g><g opacity="1" transform="rotate(0 88.1412 16.22229999999999)">
<svg width="205.0771" height="30.6075" x="88.1412" y="16.22229999999999" version="1.1" preserveAspectRatio="none" viewBox="1.8164 -32.3437 226.1328 33.75">
  <g transform="matrix(1 0 0 1 0 0)" class="aD6z1nYkhcolor"><path d="M8.85-32.34L8.85 0L7.44 0L7.44-32.34L8.85-32.34ZM6.04-32.34L6.04 0L4.63 0L4.63-32.34L6.04-32.34ZM3.22-32.34L3.22 0L1.82 0L1.82-32.34L3.22-32.34ZM11.66-12.66L11.66-7.03L26.62-7.03L26.62-5.63L11.66-5.63L11.66-4.22L26.62-4.22L26.62-2.81L11.66-2.81L11.66-1.41L26.62-1.41L26.62 0L10.25 0L10.25-32.34L26.62-32.34L26.62-30.94L11.66-30.94L11.66-29.53L26.62-29.53L26.62-28.13L11.66-28.13L11.66-26.72L26.62-26.72L26.62-25.31L11.66-25.31L11.66-19.69L19.34-19.69L19.34-18.28L11.66-18.28L11.66-16.88L19.34-16.88L19.34-15.47L11.66-15.47L11.66-14.06L19.34-14.06L19.34-12.66L11.66-12.66Z M52.27-28.13L52.27-11.35L50.86-13.91L50.86-28.13L52.27-28.13ZM55.08-28.13L55.08-6.48L53.67-8.87L53.67-28.13L55.08-28.13ZM35.70 0L35.70-16.78L37.11-14.22L37.11 0L35.70 0ZM32.89 0L32.89-21.84L34.30-19.26L34.30 0L32.89 0ZM49.67 0L33.38-28.13L35.02-28.13L51.31 0L49.67 0ZM52.95 0L36.70-28.13L38.36-28.13L54.63 0L52.95 0ZM56.23 0L40-28.13L41.64-28.13L56.48-2.44L56.48-28.13L57.89-28.13L57.89 0L56.23 0ZM46.37 0L31.48-25.70L31.48 0L30.08 0L30.08-28.13L31.76-28.13L47.99 0L46.37 0Z M66.54 0L66.54-20.33L67.95-20.33L67.95 0L66.54 0ZM82.01-26.72L60.92-26.72L60.92-28.13L82.01-28.13L82.01-26.72ZM82.01-23.91L60.92-23.91L60.92-25.31L82.01-25.31L82.01-23.91ZM82.01-21.09L60.92-21.09L60.92-22.50L82.01-22.50L82.01-21.09ZM74.98 0L74.98-20.33L76.39-20.33L76.39 0L74.98 0ZM72.17 0L72.17-20.33L73.57-20.33L73.57 0L72.17 0ZM69.36 0L69.36-20.33L70.76-20.33L70.76 0L69.36 0Z M95.72-12.03L95.72-13.44L104.20-13.44Q105.88-13.44 107.05-14.49Q108.22-15.55 108.22-17.46L108.22-17.46Q108.22-18.87 107.00-19.98Q105.78-21.09 104.20-21.09L104.20-21.09L92.13-21.09L92.13 0L90.72 0L90.72-22.50L104.20-22.50Q106.37-22.50 108.00-20.98Q109.63-19.45 109.63-17.46L109.63-17.46Q109.63-14.98 108.05-13.51Q106.46-12.03 104.20-12.03L104.20-12.03L95.72-12.03ZM95.72-9.22L95.72-10.63L104.20-10.63Q107.01-10.63 109.02-12.54Q111.04-14.45 111.04-17.46L111.04-17.46Q111.04-20.02 108.98-21.96Q106.93-23.91 104.20-23.91L104.20-23.91L89.32-23.91L89.32 0L87.91 0L87.91-25.31L104.20-25.31Q107.52-25.31 109.98-22.96Q112.44-20.61 112.44-17.46L112.44-17.46Q112.44-13.95 110.01-11.58Q107.58-9.22 104.20-9.22L104.20-9.22L95.72-9.22ZM95.72-6.41L95.72-7.81L104.20-7.81Q106.80-7.81 109.00-9.06Q111.21-10.31 112.53-12.54Q113.85-14.77 113.85-17.46L113.85-17.46Q113.85-19.90 112.54-22.04Q111.23-24.18 108.99-25.45Q106.76-26.72 104.20-26.72L104.20-26.72L86.50-26.72L86.50 0L85.10 0L85.10-28.13L104.20-28.13Q106.41-28.13 108.45-27.26Q110.49-26.39 111.97-24.95Q113.46-23.52 114.36-21.54Q115.25-19.57 115.25-17.46L115.25-17.46Q115.25-14.04 113.69-11.49Q112.13-8.95 109.49-7.62L109.49-7.62L112.44 0L110.94 0L108.14-7.05Q107.62-6.88 106.91-6.70L106.91-6.70L109.55 0L108.05 0L105.47-6.46Q104.86-6.41 104.20-6.41L104.20-6.41L106.68 0L105.20 0L102.73-6.41L101.46-6.41L103.83 0L102.34 0L99.96-6.41L95.72-6.41ZM94.94-18.28L94.94 0L93.54 0L93.54-19.69L104.20-19.69Q105.29-19.69 106.05-19.03Q106.82-18.38 106.82-17.46L106.82-17.46Q106.82-14.84 104.20-14.84L104.20-14.84L95.72-14.84L95.72-16.25L104.20-16.25Q105.41-16.25 105.41-17.46L105.41-17.46Q105.41-17.79 105.05-18.04Q104.69-18.28 104.20-18.28L104.20-18.28L94.94-18.28Z M129.11-18.04Q127.46-16.39 127.46-14.06Q127.46-11.74 129.11-10.09Q130.76-8.44 133.09-8.44Q135.41-8.44 137.06-10.09Q138.71-11.74 138.71-14.06Q138.71-16.39 137.06-18.04Q135.41-19.69 133.09-19.69Q130.76-19.69 129.11-18.04ZM128.12-9.09Q126.05-11.15 126.05-14.06Q126.05-16.97 128.12-19.03Q130.18-21.09 133.09-21.09Q136.00-21.09 138.06-19.03Q140.12-16.97 140.12-14.06Q140.12-11.15 138.06-9.09Q136.00-7.03 133.09-7.03Q130.18-7.03 128.12-9.09ZM127.12-20.02Q124.65-17.54 124.65-14.06Q124.65-10.59 127.12-8.11Q129.59-5.63 133.09-5.63Q136.58-5.63 139.05-8.11Q141.52-10.59 141.52-14.06Q141.52-17.54 139.05-20.02Q136.58-22.50 133.09-22.50Q129.59-22.50 127.12-20.02ZM124.56-9.12Q123.24-11.39 123.24-14.06Q123.24-16.74 124.56-19.00Q125.88-21.27 128.14-22.59Q130.41-23.91 133.09-23.91Q135.76-23.91 138.03-22.59Q140.29-21.27 141.61-19.00Q142.93-16.74 142.93-14.06Q142.93-11.39 141.61-9.12Q140.29-6.86 138.03-5.54Q135.76-4.22 133.09-4.22Q130.41-4.22 128.14-5.54Q125.88-6.86 124.56-9.12ZM122.72-18.43Q121.84-16.35 121.84-14.06Q121.84-11.78 122.72-9.70Q123.61-7.62 125.13-6.10Q126.64-4.59 128.72-3.70Q130.80-2.81 133.09-2.81Q135.37-2.81 137.45-3.70Q139.53-4.59 141.04-6.10Q142.56-7.62 143.45-9.70Q144.34-11.78 144.34-14.06Q144.34-16.35 143.45-18.43Q142.56-20.51 141.04-22.02Q139.53-23.54 137.45-24.42Q135.37-25.31 133.09-25.31Q130.80-25.31 128.72-24.42Q126.64-23.54 125.13-22.02Q123.61-20.51 122.72-18.43ZM121.44-9.14Q120.43-11.48 120.43-14.06Q120.43-16.64 121.44-18.98Q122.44-21.33 124.13-23.02Q125.82-24.71 128.16-25.71Q130.51-26.72 133.09-26.72Q135.66-26.72 138.01-25.71Q140.35-24.71 142.04-23.02Q143.73-21.33 144.74-18.98Q145.74-16.64 145.74-14.06Q145.74-11.48 144.74-9.14Q143.73-6.80 142.04-5.11Q140.35-3.42 138.01-2.41Q135.66-1.41 133.09-1.41Q130.51-1.41 128.16-2.41Q125.82-3.42 124.13-5.11Q122.44-6.80 121.44-9.14ZM120.14-19.52Q119.02-16.91 119.02-14.06Q119.02-11.21 120.14-8.60Q121.25-6.00 123.13-4.11Q125.02-2.23 127.63-1.11Q130.23 0 133.09 0Q135.94 0 138.54-1.11Q141.15-2.23 143.04-4.11Q144.92-6.00 146.04-8.60Q147.15-11.21 147.15-14.06Q147.15-16.91 146.04-19.52Q144.92-22.13 143.04-24.01Q141.15-25.90 138.54-27.01Q135.94-28.13 133.09-28.13Q130.23-28.13 127.63-27.01Q125.02-25.90 123.13-24.01Q121.25-22.13 120.14-19.52ZM118.85-8.06Q117.62-10.92 117.62-14.06Q117.62-17.21 118.85-20.07Q120.08-22.93 122.15-25Q124.22-27.07 127.08-28.30Q129.94-29.53 133.09-29.53Q136.23-29.53 139.09-28.30Q141.95-27.07 144.02-25Q146.09-22.93 147.32-20.07Q148.55-17.21 148.55-14.06Q148.55-10.92 147.32-8.06Q146.09-5.20 144.02-3.13Q141.95-1.05 139.09 0.18Q136.23 1.41 133.09 1.41Q129.94 1.41 127.08 0.18Q124.22-1.05 122.15-3.13Q120.08-5.20 118.85-8.06Z M162.62-11.84L162.62-13.24L168.57-13.24Q170.33-13.24 171.56-14.30Q172.79-15.35 172.79-17.27L172.79-17.27Q172.79-18.75 171.50-19.92Q170.21-21.09 168.57-21.09L168.57-21.09L158.73-21.09L158.73 0L157.32 0L157.32-22.50L168.57-22.50Q170.82-22.50 172.51-20.92Q174.20-19.34 174.20-17.27L174.20-17.27Q174.20-14.79 172.56-13.31Q170.92-11.84 168.57-11.84L168.57-11.84L162.62-11.84ZM162.62-9.02L162.62-10.43L168.57-10.43Q171.46-10.43 173.54-12.34Q175.61-14.26 175.61-17.27L175.61-17.27Q175.61-19.90 173.50-21.90Q171.39-23.91 168.57-23.91L168.57-23.91L155.92-23.91L155.92 0L154.51 0L154.51-25.31L168.57-25.31Q171.97-25.31 174.49-22.90Q177.01-20.49 177.01-17.27L177.01-17.27Q177.01-13.75 174.52-11.39Q172.03-9.02 168.57-9.02L168.57-9.02L162.62-9.02ZM162.62-6.21L162.62-7.62L168.57-7.62Q171.21-7.62 173.47-8.87Q175.72-10.12 177.07-12.34Q178.42-14.57 178.42-17.27L178.42-17.27Q178.42-19.75 177.08-21.93Q175.74-24.12 173.47-25.42Q171.19-26.72 168.57-26.72L168.57-26.72L153.11-26.72L153.11 0L151.70 0L151.70-28.13L168.57-28.13Q170.80-28.13 172.88-27.25Q174.96-26.37 176.48-24.89Q178.01-23.42 178.92-21.42Q179.82-19.41 179.82-17.27L179.82-17.27Q179.82-14.75 178.93-12.64Q178.03-10.53 176.48-9.13Q174.94-7.73 172.90-6.97Q170.86-6.21 168.57-6.21L168.57-6.21L162.62-6.21ZM161.54-18.28L161.54 0L160.14 0L160.14-19.69L168.57-19.69Q169.73-19.69 170.56-18.97Q171.39-18.26 171.39-17.27L171.39-17.27Q171.39-14.65 168.57-14.65L168.57-14.65L162.62-14.65L162.62-16.05L168.57-16.05Q169.98-16.05 169.98-17.27L169.98-17.27Q169.98-17.70 169.57-17.99Q169.16-18.28 168.57-18.28L168.57-18.28L161.54-18.28Z M191.41 0L191.41-28.13L192.81-28.13L192.81 0L191.41 0ZM188.59 0L188.59-28.13L190-28.13L190 0L188.59 0ZM185.78 0L185.78-28.13L187.19-28.13L187.19 0L185.78 0ZM182.97 0L182.97-28.13L184.38-28.13L184.38 0L182.97 0Z M216.45 0L216.45-13.87Q216.45-16.37 214.90-17.73Q213.36-19.10 210.82-19.10L210.82-19.10Q208.67-19.10 207.13-17.62Q205.59-16.13 205.59-14.06L205.59-14.06Q205.59-12.89 205.90-11.96Q206.21-11.04 206.75-10.42Q207.29-9.80 208.03-9.40Q208.77-9.00 209.58-8.83Q210.39-8.65 211.31-8.65L211.31-8.65Q213.54-8.65 215.37-9.75L215.37-9.75L215.37-8.34Q213.48-7.34 211.29-7.34L211.29-7.34Q209.88-7.34 208.64-7.72Q207.40-8.11 206.39-8.88Q205.37-9.65 204.78-10.99Q204.18-12.32 204.18-14.06L204.18-14.06Q204.18-16.76 206.07-18.63Q207.97-20.51 210.82-20.51L210.82-20.51Q213.96-20.51 215.91-18.74Q217.85-16.97 217.85-13.87L217.85-13.87L217.85 0L216.45 0ZM220.66-13.87L220.66-13.87L220.66 0L219.26 0L219.26-13.87Q219.26-17.56 216.89-19.74Q214.53-21.91 210.82-21.91L210.82-21.91Q207.38-21.91 205.08-19.63Q202.77-17.34 202.77-14.06L202.77-14.06Q202.77-12.07 203.47-10.49Q204.16-8.91 205.35-7.95Q206.54-6.99 208.02-6.49Q209.49-6.00 211.13-6.00L211.13-6.00Q213.36-6.00 215.37-7.03L215.37-7.03L215.37-5.55Q213.26-4.67 211.11-4.67L211.11-4.67Q209.18-4.67 207.44-5.26Q205.70-5.86 204.34-7.00Q202.97-8.14 202.17-9.97Q201.37-11.80 201.37-14.06L201.37-14.06Q201.37-17.91 204.09-20.62Q206.82-23.32 210.82-23.32L210.82-23.32Q213.63-23.32 215.86-22.18Q218.09-21.04 219.38-18.87Q220.66-16.70 220.66-13.87ZM223.48-13.87L223.48-13.87L223.48 0L222.07 0L222.07-13.87Q222.07-17.09 220.60-19.58Q219.12-22.07 216.56-23.40Q214.00-24.73 210.82-24.73L210.82-24.73Q207.79-24.73 205.29-23.29Q202.79-21.86 201.38-19.41Q199.96-16.97 199.96-14.06L199.96-14.06Q199.96-11.56 200.88-9.50Q201.80-7.44 203.35-6.11Q204.90-4.79 206.88-4.05Q208.87-3.32 211.04-3.32L211.04-3.32Q213.24-3.32 215.37-4.24L215.37-4.24L215.37-2.81Q213.14-1.97 211.00-1.97L211.00-1.97Q207.62-1.97 204.79-3.50Q201.95-5.02 200.25-7.81Q198.55-10.61 198.55-14.06L198.55-14.06Q198.55-16.52 199.50-18.75Q200.45-20.98 202.07-22.60Q203.69-24.22 205.98-25.18Q208.26-26.13 210.82-26.13L210.82-26.13Q214.39-26.13 217.28-24.61Q220.16-23.09 221.82-20.27Q223.48-17.46 223.48-13.87ZM226.29-13.87L226.29-13.87L226.29 0L224.88 0L224.88-13.87Q224.88-17.85 223.03-20.99Q221.17-24.12 217.97-25.83Q214.77-27.54 210.82-27.54L210.82-27.54Q207.03-27.54 203.89-25.72Q200.74-23.91 198.95-20.81Q197.15-17.71 197.15-14.06L197.15-14.06Q197.15-11.66 197.92-9.50Q198.69-7.34 200.03-5.73Q201.37-4.12 203.12-2.95Q204.86-1.78 206.88-1.17Q208.91-0.57 211.00-0.57L211.00-0.57Q213.30-0.57 215.37-1.45L215.37-1.45L215.37 0Q213.20 0.76 210.92 0.76L210.92 0.76Q208.55 0.76 206.32 0.10Q204.08-0.57 202.18-1.87Q200.27-3.16 198.83-4.93Q197.38-6.70 196.56-9.06Q195.74-11.43 195.74-14.06L195.74-14.06Q195.74-17.09 196.88-19.83Q198.03-22.58 200.01-24.58Q201.99-26.58 204.81-27.76Q207.64-28.95 210.82-28.95L210.82-28.95Q214.06-28.95 216.91-27.85Q219.77-26.76 221.84-24.81Q223.91-22.87 225.10-20.04Q226.29-17.21 226.29-13.87Z"></path></g>
</svg>
</g><g opacity="1" transform="rotate(0 0 0)">
<svg width="70.2966" height="70.2967" x="0" y="0" version="1.1" preserveAspectRatio="none" viewBox="0 0 70.2966 70.2967">
  <rect x="0" y="0" width="70.2966" height="70.2967" class="atBXipXk0bfillColor text-str" style="stroke-width:0;" rx="0px" ry="0px"></rect>
</svg>
</g><g opacity="1" transform="rotate(0 7.212100000000007 7.375399999999985)">
<svg width="64.7068" height="52.5459" x="7.212100000000007" y="7.375399999999985" version="1.1" preserveAspectRatio="none" viewBox="20 35 160.08619689941406 130">
  <g transform="matrix(1 0 0 1 0 0)"><g><path d="M140.6 131.5c-9.8-10.8-9-26.8-1-34.1 8-7.3 22.4-4.6 32.1 6.2 9.8 10.8 11.2 25.5 3.2 32.8-8 7.3-24.6 5.9-34.3-4.9z" data-color="1" class="aIptOCySncolors-0"></path><path d="M106.5 149.2c0 8.7-1.1 15.8-2.5 15.8s-2.5-7.1-2.5-15.8 1.1-15.8 2.5-15.8 2.5 7.1 2.5 15.8z" data-color="1" class="aIptOCySncolors-0"></path><path d="M63.9 149.2c0 8.7-1.1 15.8-2.5 15.8s-2.5-7.1-2.5-15.8 1.1-15.8 2.5-15.8 2.5 7.1 2.5 15.8z" data-color="1" class="aIptOCySncolors-0"></path><path d="M120 146.7c0 8.7-1.1 15.8-2.5 15.8s-2.5-7.1-2.5-15.8 1.1-15.8 2.5-15.8 2.5 7.1 2.5 15.8z" data-color="1" class="aIptOCySncolors-0"></path><path d="M78.2 146.7c0 8.7-1.1 15.8-2.5 15.8s-2.5-7.1-2.5-15.8 1.1-15.8 2.5-15.8 2.5 7.1 2.5 15.8z" data-color="1" class="aIptOCySncolors-0"></path><path d="M166.6 85.7c2 2.1 1.3 6.1-1.6 9.1-2.9 3-7 3.7-9 1.6s-1.3-6.1 1.6-9.1c2.9-3 7-3.7 9-1.6z" data-color="1" class="aIptOCySncolors-0"></path><path d="M171.4 109.5c0 4.2-3.3 7.5-7.5 7.5-4.1 0-7.5-3.4-7.5-7.5 0-4.2 3.4-7.5 7.5-7.5s7.5 3.4 7.5 7.5z" data-color="2" class="aIptOCySncolors-1"></path><path d="M158.8 122.2c0 4.2-3.3 7.5-7.5 7.5s-7.5-3.4-7.5-7.5c0-4.2 3.4-7.5 7.5-7.5s7.4 3.4 7.5 7.5z" data-color="2" class="aIptOCySncolors-1"></path><path d="M25 106.2c.1 0 .1.1.2.1.1.1.2.1.3.2l1.2.6c.1 0 .2.1.2.1.5.2 1 .4 1.5.5.1 0 .2.1.4.1.2.1.4.1.5.2 0 .1 0 .2-.1.3 0-.1.1-.2.1-.3l.8.1h.1l.7.1c-.1.2-.1.4-.2.6.1-.2.1-.4.2-.6h.2c.5.1 1 .1 1.4.1.4 0 .9 0 1.3-.1.1 0 .3 0 .4-.1.3 0 .6-.1.9-.1.2 0 .3-.1.5-.1.3-.1.5-.1.8-.2.4-.1.8-.3 1.2-.4.2-.1.3-.1.5-.2s.5-.2.7-.3c.1-.1.3-.1.4-.2.3-.1.5-.3.8-.5.1-.1.2-.1.4-.2.4-.2.7-.5 1-.8.1.4.1.9.1 1.3 0 4.6-3.7 8.4-8.4 8.4-.5 0-1-.1-1.5-.2h-.2c-.5-.1-.9-.3-1.4-.4l-.1-.1c-.1-.1-.3-.1-.4-.2l-.4-.2-.8-.4v-.5.3c-2.2-1.6-3.5-4.1-3.4-6.8.1.1.1 0 .1-.1z" data-color="3" class="aIptOCySncolors-2"></path><path d="M60.4 123.4c.5 0 1 .1 1.5.2h.3c.5.1.9.2 1.4.4h.1l.6.3.2.1c.2.1.5.3.7.4l.1.1c.2.1.4.3.6.4l.1.1.6.6v.1c.3.3.6.7.8 1.1l.1.1.6 1.2c0 .1.1.2.1.2.2.4.3.8.4 1.3v.2c.1.5.1.9.1 1.4 0 .5 0 .9-.1 1.4v.2c-.1.5-.2 1-.4 1.5-.2.4-.3.8-.6 1.2 0 0 0 .1-.1.1-.2.4-.5.7-.7 1l-.1.1-.6.6-.2.2-.5.4c-.2-.4-.4-.8-.7-1.3.2.4.4.9.6 1.3-1.4 1.1-3.2 1.7-5 1.7-3.3 0-6.4-2.1-7.7-5.1.2 0 .3-.1.5-.1-.2 0-.3.1-.5.1l-.2-.8v-.1c-.1-.2-.1-.5-.2-.7.2 0 .3-.1.5-.1-.2 0-.3.1-.5.1v-.2c-.1-.5-.1-1-.2-1.5.1-4.4 3.8-8.2 8.4-8.2z" data-color="3" class="aIptOCySncolors-2"></path><path d="M20 94c0-5.9 4-11 9.7-12.3 0 .1 0 .1.1.2.2.7.4 1.3.7 1.9 0 .1.1.2.1.3.3.6.5 1.2.9 1.8l.1.1c.3.6.7 1.2 1.1 1.7.1.1.2.2.2.3l1.2 1.5c.1.1.2.2.2.3.4.5.9.9 1.4 1.4l.1.1c.5.4 1 .8 1.6 1.2.1.1.2.2.3.2.5.4 1.1.7 1.7 1 .1.1.2.1.3.2.5.3 1.1.5 1.6.7.1 0 .2.1.2.1h.1c.4.2 2.7.8 2.7.8h.2c.2 0 .4.1.6.1v.1l-.3 1.5c0 .1-.1.2-.1.3-.1.4-.3.9-.4 1.3 0 .1-.1.2-.1.3-.2.5-.4.9-.7 1.4-.1.1-.1.2-.2.3-.3.4-.5.8-.8 1.2l-.1.1c0-.1 0-.1 0 0-.2.2-.4.5-.6.7-.1.1-.1.2-.2.2-.1.1-.6.5-.7.6-.1.1-.3.2-.4.4-.2.1-.3.3-.5.4-.1.1-.3.2-.5.3l-.6.3c-.2.1-.3.2-.5.3l-.6.3c-.2.1-.3.1-.5.2s-.4.2-.6.2c-.2.1-.3.1-.5.2s-.5.1-.7.2c-.2 0-.3.1-.5.1-.3 0-.5.1-.8.1-.1 0-.3 0-.4.1-.4 0-.8.1-1.2.1-.3 0-1.5-.1-1.8-.2h-.2c-.2 0-.4-.1-.6-.1 0-.1 0-.1 0 0-.2 0-.4-.1-.6-.1-.2 0-.3-.1-.5-.1-.4-.1-.8-.3-1.1-.4-.1 0-.2-.1-.2-.1-.4-.2-.9-.4-1.3-.7-.1-.1-.2-.2-.4-.2-.3-.2-.7-.5-1-.7l-.3-.2s-.7-.7-.7-.6c-2.5-2.7-3.9-6-3.9-9.4z" data-color="3" class="aIptOCySncolors-2"></path><path d="M30.4 116.2c.4.1.7.2 1.1.3.1 0 .3 0 .4.1.5.1.9.1 1.4.1 5.5 0 10-4.5 10-10.1 0-.5 0-1-.1-1.5 0-.2-.1-.3-.1-.5s-.1-.5-.1-.7c0 0 .1-.1.1-.2.4-.5.9-1 1.2-1.6 0-.1.1-.1.1-.2.4-.5.7-1.1 1-1.7 0-.1.1-.1.1-.2.3-.6.5-1.2.7-1.9 0-.1.1-.2.1-.3.2-.6.3-1.3.4-1.9v-.1h.1c.5 0 .9.1 1.3.1h1.2s1.3-.1 1.6-.2c.1 0 .3 0 .4-.1l1.5-.3c.3.1.5.1.8.2.3.1.5.1.8.2l.9.3c.2.1.5.2.7.3.3.1.6.2.8.4.2.1.5.2.7.3.3.1.5.3.8.4.2.1.5.2.7.4.3.2.5.3.8.5.2.1.4.3.6.4.2.2.5.4.7.6.2.2.4.3.6.5.2.2.4.4.7.6.2.2.4.3.5.5.2.2.4.4.6.7.2.2.3.4.5.6.2.2.4.5.5.7.2.2.3.4.5.6.2.2.3.5.5.8.1.2.3.4.4.6.2.3.3.5.4.8.1.2.2.4.3.7.1.3.2.6.4.9.1.2.2.5.3.7l.3.9c.1.2.2.5.2.7.1.3.2.7.2 1 0 .2.1.4.1.7.1.4.1.8.1 1.1 0 .2.1.4.1.6.1.6.1 1.2.1 1.7 0 .4 0 .7-.1 1.1-.3.3-.6.6-.9 1-.3-.1 0 0 0 0l-.4.4-.2.3s-1.5 2.2-1.9 2.9c-.1.1-.1.2-.2.3-.3.6-.6 1.2-.8 1.8 0 .1-.1.2-.1.3v.1h-.1c-.5-.2-1.1-.4-1.6-.5-.1 0-.2 0-.4-.1-.6-.1-1.1-.2-1.7-.2-5.5 0-10 4.5-10 10.1 0 .6.1 1.1.2 1.7v.2c-10.4.7-19.4-7.1-20.4-17.5.5-.4.5-.4.6-.4z" data-color="3" class="aIptOCySncolors-2"></path><path d="M30.9 79.7c-.2-1.1-.3-2.1-.3-3.2 0-9.7 7.9-17.7 17.5-17.7 4.3 0 8.3 1.6 11.5 4.4.1.7.2 1.3.3 1.9v.3c.1.8.3 1.6.5 2.4.1.2.2.5.2.7.2.5.3 1.1.5 1.6l.3.9c.1.3.2.6.4 1-.1.1-.3.2-.4.2.1-.1.3-.1.4-.2l.4.8.4.7c-.1.1-.3.2-.4.2.1-.1.3-.1.4-.2.3.6.6 1.1 1 1.6.1.2.2.4.3.5.5.8 1 1.5 1.6 2.2 0 .2 0 .4-.1.5 0 .2 0 .5-.1.7 0 .2-.1.5-.1.7 0 .2-.1.4-.1.7-.1.2-.1.5-.2.7-.1.2-.1.4-.2.6-.1.2-.2.5-.2.7-.1.2-.1.4-.2.6-.1.2-.2.5-.3.7-.1.2-.2.4-.2.6-.1.2-.2.4-.4.7-.1.2-.2.3-.3.5-.1.2-.3.4-.4.7-.1.2-.2.3-.3.5-.2.2-.3.5-.5.7-.1.1-.2.3-.3.4-.2.2-.4.5-.6.7-.1.1-.2.2-.2.3-.6.6-1.3 1.3-2 1.8-.1.1-.2.1-.2.2l-.9.6c-.1.1-.3.2-.4.2-.2.2-.5.3-.8.5-.2.1-.3.2-.5.2-.2.1-.5.3-.7.4-.2.1-.4.1-.5.2-.2.1-.5.2-.7.3-.2.1-.4.1-.6.2-.2.1-.4.2-.7.2h-.2s-1.5.5-2 .5c-1.4.2-2.8.3-4.2.1-.2 0-.4-.1-.6-.1l-.8-.2-.6-.1h-.2c-.6-.1-1.3-.3-1.9-.6-.1 0-.3-.1-.4-.1-.8-.3-1.5-.6-2.2-1-.2-.1-.3-.2-.5-.3-.5-.3-1-.6-1.5-1-.2-.2-.4-.4-.7-.6-.4-.3-.8-.6-1.2-1-.2-.2-.4-.5-.7-.7-.3-.4-.7-.7-.9-1.1-.2-.3-.4-.6-.6-.8-.3-.4-.5-.8-.8-1.2-.2-.3-.3-.6-.5-.9l-.6-1.2c-.1-.3-.3-.7-.4-1-.1-.3-.2-.6-.3-.8h-.1c-.1-.3-.2-.5-.3-.8v-.1l.3-.9z" data-color="3" class="aIptOCySncolors-2"></path><path d="M111.2 72.8c-.2.5-.5.9-.7 1.4l.5.5c.2.1.3.3.5.4.3.3.6.5.9.7.2.1.3.2.5.3.4.3.8.6 1.3.8.1 0 .1.1.2.1.5.3 1 .5 1.5.8.1.1.3.1.4.2.4.2.8.3 1.2.4.2.1.4.1.6.2.3.1.7.2 1 .3.2.1.5.1.7.1.3.1.7.1 1 .2.2 0 .5.1.7.1h.5c0-.2 0-.2 0 0 .3 0 .6.1.8.1h.9c0-.2 0-.2 0 0 .8 0 2.3-.2 2.3-.2.3-.1.7-.1 1-.2.2 0 .3-.1.5-.1s.9-.2 1.1-.3c.2-.1.5-.1.7-.2.3-.1.5-.2.8-.3.2-.1.5-.2.7-.3.3-.1.5-.2.8-.4.2-.1.4-.2.7-.3.3-.1.5-.3.7-.4.2-.1.4-.2.6-.4.2-.2.5-.3.7-.5.2-.1.4-.3.6-.4.2-.2.4-.4.7-.5.2-.2.4-.3.5-.5l.6-.6.5-.5.6-.6c.2-.2.3-.4.5-.5.2-.2.3-.5.5-.7.1-.2.3-.4.4-.6.2-.2.3-.5.4-.7.1-.2.3-.4.4-.6.1-.3.3-.5.4-.8l.3-.6c.1-.3.2-.5.3-.8l.3-.6.3-.9c.1-.2.1-.4.2-.6.1-.3.1-.6.2-.9 0-.2.1-.4.1-.6.1-.3.1-.7.1-1 0-.2.1-.4.1-.6 0-.5.1-1.1.1-1.6v-.7c-.3 0-.3 0 0 0V59l-.1-.8c-.3 0-.3 0 0 0-1.2-9.4-9.2-16.6-18.7-16.6-4.9 0-9.6 1.9-13.1 5.3l.3.6c.1.2.3.5.4.7.2.3.3.6.4.9.1.3.2.5.3.8.1.3.2.6.4.9.1.3.2.5.3.8.1.3.2.6.3 1 .1.3.2.5.2.8.1.3.2.7.2 1 .1.3.1.5.2.8.1.4.1.7.2 1.1 0 .2.1.5.1.7.1.4.1.8.1 1.2 0 .2 0 .4.1.6 0 .6.1 1.2.1 1.8 0 .8 0 1.7-.1 2.5 0 .3-.1.5-.1.8-.1.6-.1 1.1-.2 1.7-.1.3-.1.6-.2.9-.1.5-.2 1-.4 1.5-.1.3-.2.7-.3 1l-.3.9h.2-.2l-.3.8-.1.2-.3.6c.5.1.5.1 0 0-.2.4-.4.9-.6 1.3z" data-color="3" class="aIptOCySncolors-2"></path><path d="M125.5 115.9l-.9.9h.1c-.3-.1-.6-.2-.8-.4.2.1.5.2.7.3.4-.2.7-.5.9-.8z" data-color="3" class="aIptOCySncolors-2"></path><path d="M126.6 117.4c.2-.2.4-.4.6-.7-.2.2-.4.5-.6.7z" data-color="3" class="aIptOCySncolors-2"></path><path d="M115.9 101.6s0-.1 0 0c.1-.8.3-1.5.5-2.1v-.1c.2-.6.5-1.3.8-1.9 0-.1.1-.1.1-.2.3-.6.7-1.1 1.1-1.7 0-.1.1-.1.1-.2.1-.2.3-.3.5-.5-2 2.5-3.1 5.6-3.1 8.8 0 5.6 3.3 10.5 8 12.7h-.1c-.3-.1-.6-.3-.9-.4-.3-.2-.7-.4-1-.6-.3-.2-.6-.4-.8-.6-.3-.2-.6-.5-.9-.8-.2-.2-.5-.4-.7-.6-.3-.3-.5-.6-.7-.9-.2-.2-.4-.5-.6-.7-.2-.3-.4-.7-.6-1-.2-.3-.3-.5-.5-.8-.2-.4-.3-.8-.5-1.2-.1-.3-.2-.5-.3-.8-.1-.4-.2-.9-.3-1.4 0-.2-.1-.5-.2-.7-.1-.7-.2-1.4-.2-2.1.1-.7.2-1.5.3-2.2z" data-color="3" class="aIptOCySncolors-2"></path><path d="M126.4 117.4l-.9-.3-.4-.1c-.1 0-.3-.1-.4-.2.6.2 1.2.4 1.7.6.1 0 .1 0 0 0z" data-color="3" class="aIptOCySncolors-2"></path><path d="M119.9 94s-.1.1-.1.2c0-.1 0-.2.1-.2z" data-color="3" class="aIptOCySncolors-2"></path><path d="M134.3 117.1c.2-.1.5-.2.7-.3-.2.1-.5.2-.7.3z" data-color="3" class="aIptOCySncolors-2"></path><path d="M115.9 103.7c0-3.4 1.2-6.4 3.1-8.8.2-.3.5-.5.7-.8l.2-.2c.1-.1.2-.1.2-.2.4-.4.9-.8 1.4-1.2.1-.1.2-.1.2-.2.5-.4 1.1-.7 1.7-1 .1 0 .2-.1.3-.1.6-.3 1.2-.5 1.9-.7h.2c.3.4.6.7.9 1.1.2.3.4.5.6.8.5.6 1.1 1.1 1.6 1.7l.3.3c.7.6 1.4 1.2 2.2 1.7.2.1.5.3.7.4.5.3.9.6 1.4.8v.1-.1l.5.2.4.2.3.2c.8.4 1.3.5 1.9.7.1 0 .2.1.3.1.2.1.4.1.5.2h.1c.5.1.9.3 1.4.4l.3.1c1.2.2 2.4.3 3.6.4h.4c.4 1.3.6 2.7.6 4.2 0 5.8-3.5 10.8-8.5 12.9-.1 0-.2.1-.3.1-.2.1-.5.2-.7.3-.5.2-1 .3-1.5.4h-.2c-.4.1-.7.1-1.1.2h-.3c-.4 0-.9.1-1.3.1-.5 0-1 0-1.5-.1-.1 0-.3 0-.4-.1-.4-.1-.7-.1-1.1-.2-.1 0-.1 0-.2-.1.2-.2.4-.4.6-.7l-.7.7c-.6-.1-1.2-.3-1.8-.6h-.1l.9-.9-.9.9c-.3-.1-.5-.2-.7-.3-4.8-2.4-8.1-7.2-8.1-12.9z" data-color="3" class="aIptOCySncolors-2"></path><path d="M120 93.8c.1-.1.1-.1 0 0l-.2.2.2-.2z" data-color="3" class="aIptOCySncolors-2"></path><path d="M135 116.8c.1 0 .2-.1.3-.1-.1 0-.2.1-.3.1z" data-color="3" class="aIptOCySncolors-2"></path><path d="M123.9 81.3c0 .3.1.6.1.9 0 .2.1.5.1.7.1.5.3 1.1.4 1.6 0 .2.1.3.1.5.2.7.5 1.3.8 2 .1.2.2.3.3.5.2.4.8 1.5.9 1.6.1.1.1.2.2.3.2.3.4.5.5.7.1 0 .1 0 0 0 .2.2.3.5.5.7.1.2.3.3.4.5.5.6 1 1.2 1.6 1.7l.2.2c.5.5 1.1.9 1.6 1.3.2.1.4.3.6.4.2.1 1.5.9 1.5.9l.4.2h.1l.4.2.4.2.2.1c.2.1.4.1.6.2.2.1.5.2.7.2.2.1.4.1.6.2.4.1.9.2 1.3.3.1 0 .2.1.3.1.6.1 1.1.2 1.7.2h.5c.3 0 1.2.1 1.3.1h.9c.2 0 .4 0 .6-.1 0-.1 0-.1 0 0 .4 0 .9-.1 1.3-.1.3 0 .5-.1.8-.1.8-.1 1.5-.3 2.3-.6.8-.2 1.5-.5 2.2-.9.2-.1.5-.3.7-.4.4-.2 1.5-.8 1.6-.9l.2-.1.7-.5V94c4.8-3.6 7.6-9.2 7.5-15.2 0-9.9-7.5-18.1-17.3-18.9v.6c0 .6 0 1.2-.1 1.8 0 .2-.1.4-.1.6 0 .4-.1.8-.1 1.1 0 .2-.1.5-.1.7-.1.3-.1.7-.2 1-.1.2-.1.5-.2.7l-.3.9c-.1.2-.2.5-.3.7-.1.3-.2.6-.4.9-.1.2-.2.5-.3.7-.1.3-.3.5-.4.8-.1.2-.3.5-.4.7-.2.3-.3.5-.5.8-.1.2-.3.4-.4.7-.2.2-.3.5-.5.7-.2.2-.3.4-.5.6-.5.7-1.1 1.3-1.8 1.9-.4.4-.8.8-1.3 1.1-.4.3-.9.7-1.4 1-.2.1-.4.3-.7.4-.3.2-.5.3-.8.4-.2.1-.5.3-.7.4-.3.1-.5.3-.8.4-.2.1-.5.2-.7.3l-.9.3c-.3.1-.5.2-.8.3-.1 0-.1 0-.2.1l-.9.3-.4.1s-1.5.3-1.9.3h-.3c-.2 0-.8.1-1.4.1z" data-color="3" class="aIptOCySncolors-2"></path><path d="M120.4 120.8h1.7c4.2.5 7.4 4.1 7.4 8.4 0 5-4.3 9-9.4 8.4 0-.1.1-.2.1-.3.1-.2.1-.4.2-.6.1-.3.2-.6.3-1 .1-.2.1-.4.2-.6.1-.4.1-.7.2-1.1 0-.2.1-.3.1-.5.1-.5.1-1.1.1-1.6 0-.4 0-.9-.1-1.3 0-.1 0-.3-.1-.4 0-.3-.1-.6-.1-.9 0-.2-.1-.3-.1-.5-.1-.3-.1-.5-.2-.8 0-.2-.1-.3-.1-.5-.1-.4-.3-.8-.4-1.2-.1-.2-.2-.5-.3-.7-.1-.2-.1-.3-.2-.5s-.3-.5-.4-.7c-.1-.1-.2-.3-.3-.4-.2-.2-.3-.5-.5-.7-.1-.1-.2-.2-.2-.3v-.1c-.2-.2-.4-.5-.6-.7l-.2-.2-.2-.2c.9-.6 2-.9 3.1-1z" data-color="3" class="aIptOCySncolors-2"></path><path d="M90.6 111.3c.1-.2.3-.3.4-.5.3-.3.5-.5.7-.8.3-.4.6-.7.9-1.1l.6-.9c.3-.4.5-.8.7-1.2l.6-.9.6-1.2c.2-.3.3-.6.5-1s.3-.9.5-1.3c.1-.3.2-.7.3-1 .1-.5.3-1 .4-1.4.1-.3.2-.6.2-1 .1-.5.2-1.1.3-1.6 0-.3.1-.5.1-.8.1-.8.1-1.7.1-2.5 0-.7 0-1.4-.1-2.1 0-.2-.1-.4-.1-.7 0-.5-.1-.9-.2-1.4 0-.3-.1-.5-.2-.8l-.3-1.2c-.1-.3-.2-.6-.2-.8-.1-.2-.1-.5-.2-.7.3-.1.5-.2.8-.3.3-.1.6-.2.9-.4.4-.2.9-.4 1.3-.6.3-.1.5-.3.8-.4.5-.3 1-.6 1.4-.9.2-.1.3-.2.5-.3.6-.4 1.2-.9 1.8-1.3.1-.1.3-.2.4-.3.4-.4.9-.8 1.3-1.2l.6-.6 1-1c.2-.2.4-.5.6-.7.3-.3.6-.7.8-1.1.2-.3.4-.5.6-.8.1-.2.3-.4.4-.6.1.1.3.2.4.3l1.5 1.2c.2.1.4.3.6.4.3.2.7.4 1 .6.2.1.4.2.6.4l1.2.6c.2.1.3.2.5.2.6.2 1.1.5 1.7.7.1 0 .2.1.4.1.5.1.9.3 1.4.4.2.1.4.1.7.1.4.1.8.2 1.2.2.3 0 .5.1.8.1.2 0 .5.1.7.1 0 .4.1.8.2 1.3 0 .2.1.4.1.6.2.8.4 1.5.6 2.2.1.2.1.3.2.5.2.6.4 1.1.7 1.7.1.2.2.5.3.7.1.3.2.5.4.8h-.1c-.2.1-.3.1-.5.2s-.4.2-.7.3c-.2.1-.3.2-.5.2l-.6.3c-.2.1-.3.2-.5.3-.2.1-.4.2-.6.4-.2.1-.3.2-.5.3-.2.1-.4.3-.5.4-.2.1-.3.2-.4.4-.5.4-1 .8-1.4 1.3-.4.4-.8.9-1.2 1.4-.1.2-.3.4-.4.5-.1.2-.2.3-.3.5l-.3.6c-.1.2-.2.3-.3.5l-.3.6c-.1.2-.2.3-.2.5l-.3.6c-.1.2-.1.3-.2.5s-.1.5-.2.7c0 .2-.1.3-.1.5-.1.2-.1.5-.2.7 0 .2-.1.3-.1.5 0 .3-.1.6-.1.8 0 .1 0 .3-.1.4 0 .4-.1.9-.1 1.3 0 .7.1 1.4.2 2.1v.2c.1.7.2 1.3.4 2 0 .1 0 .2.1.3.2.6.4 1.2.7 1.8 0 .1.1.2.1.3.3.6.6 1.1.9 1.7.1.1.1.2.2.2.4.5.7 1.1 1.2 1.6l.2.2c.4.5.9 1 1.4 1.4l.1.1c.5.5 1.1.9 1.6 1.3.6.4 1.2.7 1.8 1 .1 0 .1.1.2.1.3.1.6.2.8.4.2.1.3.1.5.2l.4.2c-.2.2-.4.4-.7.5-.1.1-.2.1-.2.2-.4-.1-.7-.2-1.1-.2-.3-.1-.6-.1-.9-.2h-1.9c-1.1.1-2.2.4-3.2.9-.1 0-.2.1-.2.1-.3.1-.5.3-.8.4l-.1-.1c-.4-.3-.8-.6-1.3-.9l-.1-.1c-3.2-1.9-7.1-2.5-10.7-1.6h-.2c-.5.1-1.1.3-1.6.5-.2.1-.5.2-.7.3-.4.2-.7.4-1.1.6-.2.1-.3.2-.5.3v-.1c-.1-.1-.2-.3-.2-.4-.1-.2-.2-.4-.3-.5l-.6-.9c-.1-.2-.2-.3-.3-.5-.3-.4-.6-.7-.9-1.1-.1-.1-.1-.2-.2-.2l-1.2-1.2-.3-.3c-.3-.3-.6-.5-1-.8-.2-.1-.3-.2-.5-.4l-.9-.6-1.5-.9-.6-.3c-.2 0-.3 0-.3-.1z" data-color="3" class="aIptOCySncolors-2"></path><path d="M94.3 131.8c0 .6.1 1.3.2 1.9v.2c.1.6.3 1.2.4 1.7 0 .1.1.2.1.3.2.6.4 1.1.7 1.6 0 .1.1.2.1.3.3.5.6 1.1 1 1.6l.2-.2c-.1.1-.1.1-.1.2.2.2.4.4.5.7l.1.1.5.5c.1-.1.2-.3.3-.4-.1.1-.2.3-.3.4 2.4 2.4 5.5 3.7 8.9 3.7 4.3 0 8.4-2.2 10.7-5.9-.1 0-.1-.1.1 0l.4-.8.1-.1.3-.6c-.1 0-.1-.1 0 0 .1-.1.1-.3.2-.4.1-.2.1-.4.2-.5.1-.3.2-.6.3-.8.1-.2.1-.4.1-.5.1-.3.1-.6.2-.9 0-.2.1-.3.1-.5.1-.9.1-1.7 0-2.6 0-.1 0-.3-.1-.4 0-.3-.1-.5-.1-.8 0-.2-.1-.3-.1-.5-.1-.2-.1-.4-.2-.7 0-.2-.1-.3-.2-.5s-.1-.4-.2-.6c-.1-.2-.1-.3-.2-.5l-.3-.6c-.1-.2-.2-.3-.2-.5-.1-.2-.2-.4-.3-.5-.1-.2-.2-.3-.3-.5-.2-.3-.4-.6-.7-.9-.1-.1-.1-.2-.2-.3l-.4-.4-.3-.3-.1-.1-.1-.1-.1-.1-.3-.3h-.1l-.1-.1-.6-.6c-.5-.4-1-.7-1.5-1h-.1c-.4-.2-.7-.4-1.1-.5-1.5-.6-3.1-1-4.7-1-1.1 0-2.2.2-3.2.5-.5.1-.9.3-1.4.5-.2.1-.4.1-.6.2-.3.1-1.5.8-1.5.8l-.6.4-.1.1c-.2.2-.5.4-.7.5l-.1.1c-.2.2-.5.4-.7.7l-.3.3c-.2.2-.4.5-.6.7-.2.3-.5.6-.7.9-.1.1-.2.3-.3.4l-.3.6c-.1.1-.2.3-.2.4l-.3.6c-.1.2-.1.3-.2.5s-.1.4-.2.6c0 .2-.1.3-.1.5-.1.2-.1.5-.2.7 0 .1-.1.3-.1.4 0 .3-.1.5-.1.8 0 .1 0 .3-.1.4-.1.5-.1.9-.1 1.2z" data-color="3" class="aIptOCySncolors-2"></path><path d="M65.8 123l.9-2.1v-.1c.4-.7.8-1.4 1.3-2l.1-.1v.2c0-.1 0-.1.1-.2s.1-.2.2-.3l.4.1h.2l.9.1c.3 0 .5.1.8.1.2 0 .4 0 .6.1.6 0 1.2.1 1.7.1.6 0 1.1 0 1.7-.1.2 0 .4 0 .6-.1.4 0 .7-.1 1.1-.1.2 0 .4-.1.7-.1.3-.1.7-.1 1-.2.2-.1.5-.1.7-.2.3-.1.6-.2.9-.2.2-.1.5-.1.7-.2l.9-.3c.2-.1.5-.2.7-.3.3-.1.6-.2.9-.4.2-.1.5-.2.7-.3.3-.1.5-.3.8-.4.2-.1.5-.3.7-.4.1-.1.3-.2.4-.3.2-.1.4-.2.6-.4 0 0 .1 0 .1-.1.2-.1.4-.3.7-.5l.3-.3c.5-.4 1-.7 1.4-1.1.1-.1.3-.2.4-.3l.6.3.6.3c.3.2.6.3.9.5.2.1.3.2.5.3.4.2.7.5 1 .7.1.1.2.1.3.2.4.3.8.7 1.2 1l.3.3c.3.3.6.5.8.8.1.1.3.3.4.5.2.3.4.5.6.8.1.2.3.4.4.5.2.3.4.5.5.8.1.2.2.4.4.6.1.2.2.3.3.5l-.2.2-.6.6c-.1.1-.2.2-.3.2-.1 0-.1 0 0 0l-.4.4-.2.2-.6.7s-.1 0 0 0l-.7 1.1c-.1.1-.2.3-.3.4-.1.2-.3.4-.4.7-.1.2-.2.3-.2.5-.3.6-.5 1.2-.7 1.9-.1.2-.1.3-.1.5-.1.3-.1.5-.2.8 0 .2-.1.3-.1.5-.1.3-.1.6-.1.9 0 .1 0 .3-.1.4 0 .4-.1.9-.1 1.3s0 .9.1 1.3c0 .1 0 .3.1.4 0 .3.1.6.1.8 0 .2.1.3.1.5.1.2.1.5.2.7 0 .2.1.3.2.5s.1.5.2.7c.1.2.1.4.2.5l.3.6c.1.2.2.3.3.5.2.4.4.7.6 1.1.2.4.5.7.7 1 .1.1.1.2.2.3-3.4 3.9-8.2 6.1-13.4 6.1-6.1 0-11.6-3-14.9-8.1l.1-.1.3-.3c.3-.4.7-.8.9-1.3.2-.3.3-.6.5-.9.1-.1.1-.3.2-.4.1-.2.1-.4.2-.6 0-.1.1-.3.1-.4.1-.2.1-.4.2-.6 0-.1.1-.3.1-.4 0-.2.1-.5.1-.7v-.3c0-.3.1-.7.1-1 0-.3 0-.7-.1-1 0-.1 0-.2-.1-.3 0-.2-.1-.5-.1-.7 0-.1-.1-.3-.1-.4 0-.2-.1-.4-.2-.6 0-.1-.1-.3-.1-.4-.1-.2-.1-.4-.2-.5-.1-.1-.1-.3-.2-.4-.4-.8-.9-1.5-1.4-2.2l-.3-.3-.1-.1s.1-.3 0 0l-.5-.4-.1-.1-.6-.5c.1-.1 0-.1 0 0 0 0-.1 0-.1-.1l-.2-.1c-.1-.1-.2-.1-.3-.2.2-.4.2-.5.2-.6z" data-color="3" class="aIptOCySncolors-2"></path><path d="M56.8 94.2l-.6.2.2.1c.2.1.4.2.6.2.3.1.7.3 1 .4l.6.3c.3.2.7.3 1 .5.2.1.4.2.5.3.4.2.7.5 1.1.7.1.1.2.2.4.2.5.3.9.7 1.3 1.1.1.1.2.1.2.2.3.3.7.6 1 .9l.4.4c.3.3.5.5.7.8.1.2.3.4.4.5.2.3.4.5.6.8.5.7.9 1.4 1.3 2.1.2.3.3.6.5.9l.3.6c.1.3.3.6.4 1 .1.2.2.4.2.6.1.4.3.8.4 1.2.1.2.1.3.2.5.1.6.3 1.1.4 1.7v.3c.1.5.1 1 .2 1.5v2.7l-.1.9v.3c0 .2 0 .4-.1.6.2 0 .5.1.7.1.2 0 .4 0 .5.1.6 0 1.1.1 1.6.1s1 0 1.6-.1c.2 0 .3 0 .5-.1.3 0 .7-.1 1-.1.2 0 .4-.1.6-.1.3-.1.6-.1.9-.2.2 0 .4-.1.7-.2.3-.1.6-.1.9-.2.2-.1.4-.1.7-.2.3-.1.5-.2.8-.3.2-.1.4-.2.7-.3.3-.1.5-.2.8-.3.5-.2 1-.4 1.4-.7l.6-.3c.1-.1.8-.5 1.1-.6.2-.1.4-.3.6-.4.2-.1.4-.3.6-.4.2-.1.4-.3.6-.4l.2-.2h-.1.1c.3-.2.5-.4.8-.6.1-.1.3-.2.4-.3l.4-.3.7-.7.8-.8c.3-.3.5-.7.8-1 .2-.3.5-.6.7-.9.2-.4.5-.7.7-1.1l.6-.9.6-1.2c.1-.3.3-.6.4-.9.2-.4.3-.8.5-1.3l.3-.9c.1-.5.3-.9.4-1.4.1-.3.2-.6.2-.9.1-.5.2-1 .2-1.6 0-.3.1-.5.1-.8.1-.8.1-1.6.1-2.4 0-.6 0-1.3-.1-1.9 0-.2-.1-.4-.1-.6 0-.4-.1-.9-.2-1.3 0-.2-.1-.5-.1-.7l-.3-1.2c.2-.2.1-.4.1-.6-.1-.2-.1-.5-.2-.7-.2 0-.3.1-.5.1-.6.2-1.2.3-1.8.5-.3.1-.6.1-1 .2-.8.1-1.6.3-2.4.3h-2.7c-1 0-2-.1-3.1-.3-.2 0-1-.1-1.3-.2h-.1c-.3-.1-.6-.1-.8-.2-.3-.1-.5-.1-.8-.2s-.7-.1-1-.1c-.5-.1-1-.3-1.5-.5-.2-.1-.4-.1-.6-.2-.7-.3-1.4-.5-2-.9-.1 0-.2-.1-.3-.2-.6-.3-1.1-.6-1.6-.9-.2-.1-.4-.3-.6-.4-.4-.3-.8-.5-1.2-.8-.8-.6-1.7-1.2-2.4-1.9-.4-.3-.7-.7-1.1-1-.2-.2-.4-.4-.6-.5l-.1-.1v.1l-.1-.1v.2c-.1.7-.3 1.3-.4 1.9 0 .1 0 .2-.1.3-.2.8-.5 1.6-.9 2.4-.3.6-.6 1.3-1 1.9 0 .1-.1.1-.1.2-.3.6-.7 1.1-1.1 1.6-.1.1-.2.2-.2.3-.4.5-.9 1.1-1.4 1.6l-.3.3c-.5.5-1 .9-1.5 1.3l-.1.1c-.6.4-1.1.8-1.7 1.2-.7.4-1.3.8-2 1.1l.4.2z" data-color="3" class="aIptOCySncolors-2"></path><path d="M112.3 60.6c0 14.1-11.4 25.6-25.4 25.6S61.5 74.7 61.5 60.6 72.9 35 86.9 35s25.4 11.5 25.4 25.6z" data-color="3" class="aIptOCySncolors-2"></path><path d="M166.2 106.3c.6.7.1 2.2-1.2 3.4-1.3 1.1-2.8 1.5-3.5.8s-.1-2.2 1.2-3.4c1.3-1.2 2.8-1.5 3.5-.8z" data-color="1" class="aIptOCySncolors-0"></path><path d="M153.1 119.9c.6.7.1 2.2-1.2 3.4-1.3 1.1-2.8 1.5-3.5.8-.6-.7-.1-2.2 1.2-3.4 1.3-1.1 2.9-1.5 3.5-.8z" data-color="1" class="aIptOCySncolors-0"></path><path d="M135.4 116.4c1.6 2.4.2 6.3-3.2 8.6s-7.5 2.3-9.2-.1c-1.6-2.4-.2-6.3 3.2-8.6 3.4-2.3 7.5-2.3 9.2.1z" data-color="1" class="aIptOCySncolors-0"></path></g></g>
</svg>
</g></svg>